<svg width="56" height="56" fill="none" xmlns="http://www.w3.org/2000/svg"><circle cx="28" cy="28" r="22" fill="#C4C4C4" fill-opacity=".4"/><path d="M41 41H16V16h25v25z" fill="#FEC478"/><path d="M41 41H28.5V16H41v25z" fill="#FEC478"/><path d="M39.535 39.535h-22.07v-22.07h22.07v22.07z" fill="#994C0F"/><path d="M39.535 39.535H28.5v-22.07h11.035v22.07z" fill="#994C0F"/><path d="M26.132 24.867h1.43l3.164 8.32H29.06l-.773-2.074h-2.906l-.762 2.075h-1.664l3.176-8.32zm1.863 5.11l-1.148-3.27-1.196 3.27h2.344zm3.492-3.786v-1.558h1.57v1.558h-1.57zm0 6.997v-6.141h1.57v6.14h-1.57z" fill="#FEC478"/><path d="M28.5 27.335v4.346l.562 1.506h1.664L28.5 27.335z" fill="#FEC478"/><path d="M2.623 16.167A28 28 0 1026.66.032l.205 4.28A23.715 23.715 0 116.507 17.978l-3.884-1.811z" fill="#3B5999"/></svg>