<svg width="56" height="56" fill="none" xmlns="http://www.w3.org/2000/svg"><circle cx="28" cy="28" r="22" fill="#C4C4C4" fill-opacity=".4"/><path d="M17 15l2.277 27L29.5 45l10.22-2.998L42 15H17z" fill="#2196F3"/><path d="M37.132 23.83l-.287 3.391-.868 10.168L29.5 39.27l-.005.002-6.474-1.883-.451-5.317h3.171l.236 2.758 3.52.998.001-.002 3.525-.998.48-4.596-11.085.032-.314-3.142 11.666-.145.235-3.363-12.214.035-.205-3.129h15.828l-.282 3.31z" fill="#FAFAFA"/><path d="M9.63 6.868A28 28 0 1027.466.005l.082 4.284a23.715 23.715 0 11-15.106 5.813L9.63 6.868z" fill="#3B5999"/></svg>