<svg width="34" height="46" fill="none" xmlns="http://www.w3.org/2000/svg"><path d="M.83 34h3.18c.76 0 1.43.147 2.01.44.587.287 1.04.693 1.36 1.22.327.527.49 1.14.49 1.84 0 .7-.163 1.313-.49 1.84a3.25 3.25 0 01-1.36 1.23c-.58.287-1.25.43-2.01.43H.83v-7zm3.1 5.67c.7 0 1.257-.193 1.67-.58.42-.393.63-.923.63-1.59s-.21-1.193-.63-1.58c-.413-.393-.97-.59-1.67-.59H2.45v4.34h1.48zm7.222-4.13c.833 0 1.473.2 1.92.6.446.393.67.99.67 1.79V41h-1.46v-.67c-.294.5-.84.75-1.64.75a2.58 2.58 0 01-1.08-.21c-.3-.14-.53-.333-.69-.58a1.51 1.51 0 01-.24-.84c0-.5.186-.893.56-1.18.38-.287.963-.43 1.75-.43h1.24c0-.34-.104-.6-.31-.78-.207-.187-.517-.28-.93-.28-.287 0-.57.047-.85.14a2.17 2.17 0 00-.7.36l-.56-1.09a3.383 3.383 0 011.05-.48 4.79 4.79 0 011.27-.17zm-.12 4.49c.266 0 .503-.06.71-.18.206-.127.353-.31.44-.55v-.55h-1.07c-.64 0-.96.21-.96.63 0 .2.076.36.23.48.16.113.376.17.65.17zm7.392-4.49c.666 0 1.203.2 1.61.6.413.4.62.993.62 1.78V41h-1.56v-2.84c0-.427-.094-.743-.28-.95-.187-.213-.457-.32-.81-.32-.394 0-.707.123-.94.37-.234.24-.35.6-.35 1.08V41h-1.56v-5.38h1.49v.63c.206-.227.463-.4.77-.52a2.62 2.62 0 011.01-.19zm6.302 5.54c-.573 0-1.09-.117-1.55-.35a2.74 2.74 0 01-1.07-.99 2.713 2.713 0 01-.38-1.43c0-.533.127-1.01.38-1.43.26-.42.617-.747 1.07-.98a3.3 3.3 0 011.55-.36c.567 0 1.06.12 1.48.36.427.233.737.57.93 1.01l-1.21.65c-.28-.493-.683-.74-1.21-.74-.406 0-.743.133-1.01.4-.266.267-.4.63-.4 1.09 0 .46.134.823.4 1.09.267.267.604.4 1.01.4.534 0 .937-.247 1.21-.74l1.21.66c-.193.427-.503.76-.93 1-.42.24-.913.36-1.48.36zm8.51-2.75c0 .02-.01.16-.03.42h-4.07c.073.333.247.597.52.79.273.193.613.29 1.02.29.28 0 .527-.04.74-.12.22-.087.423-.22.61-.4l.83.9c-.507.58-1.247.87-2.22.87-.607 0-1.143-.117-1.61-.35a2.635 2.635 0 01-1.08-.99 2.714 2.714 0 01-.38-1.43c0-.527.123-1 .37-1.42a2.625 2.625 0 011.03-.99c.44-.24.93-.36 1.47-.36a3 3 0 011.43.34c.427.227.76.553 1 .98.247.42.37.91.37 1.47zm-2.79-1.61c-.353 0-.65.1-.89.3-.24.2-.387.473-.44.82h2.65a1.27 1.27 0 00-.44-.81 1.302 1.302 0 00-.88-.31zm-2.863-17.237c-.652-.724-1.644-.807-2.456-.227-.96.684-2.363 1.564-3.52 2.137-.38-1.128-.544-2.634-.85-3.851l.026-6.961s4.242-.5 5.467-.665c1.304-.108 1.504-1.13 1.226-1.848-.067-.174-1.771-4.52-2.068-5.36-.292-.825-1.078-1.314-2.087-1.062-.936.234-1.217 1.038-.932 1.863.398 1.154 1.457 3.943 1.457 3.943l-3.717.447-6.009-1.151c-1.53-1.447-2.514-3.06-2.872-5.394-.13-.857-.738-1.456-1.836-1.34C8.45.118 7.887.92 8.02 1.777c.539 3.523 2.319 6.502 5.04 8.483v6.892c-1.868 4.255-1.89 8.645.864 12.543.358.506.97.784 1.595.784.343 0 .69-.085 1.001-.258.879-.494 1.144-1.528.59-2.313-1.526-2.158-2.233-4.777-1.47-7.826.123-.49.621-.835 1.185-.816h.002c.53.016.981.349 1.1.81.335 1.305.5 2.576.754 3.369.496 1.551 2.233 1.826 3.338 1.308 2.248-1.052 3.651-1.807 5.27-2.913.826-.563.945-1.634.295-2.356z" fill="#E5E5E5"/><path d="M17.664 6.557c1.594 0 2.886-1.151 2.886-2.571 0-1.42-1.292-2.571-2.886-2.571s-2.886 1.15-2.886 2.57 1.292 2.572 2.886 2.572z" fill="#E5E5E5"/></svg>