<svg width="56" height="56" fill="none" xmlns="http://www.w3.org/2000/svg"><circle cx="28" cy="28" r="22" fill="#C4C4C4" fill-opacity=".4"/><g clip-path="url(#clip0)"><path d="M23.001 45C25.761 45 28 42.76 28 40v-5h-4.999a5.001 5.001 0 00-4.999 5c0 2.76 2.24 5 4.999 5z" fill="#0ACF83"/><path d="M18.002 30c0-2.76 2.24-5 4.999-5H28v10h-4.999a5.001 5.001 0 01-4.999-5z" fill="#A259FF"/><path d="M18.01 20c0-2.76 2.24-5 4.999-5h4.999v10h-4.999a5.001 5.001 0 01-4.999-5z" fill="#F24E1E"/><path d="M28 15h4.999a5.001 5.001 0 010 10H28V15z" fill="#FF7262"/><path d="M37.998 30c0 2.76-2.24 5-4.999 5A5.001 5.001 0 0128 30c0-2.76 2.24-5 4.999-5 2.76 0 4.999 2.24 4.999 5z" fill="#1ABCFE"/></g><path d="M8.201 8.201A28 28 0 1028 0v4.285a23.715 23.715 0 11-16.77 6.946L8.202 8.2z" fill="#3B5999"/><defs><clipPath id="clip0"><path fill="#fff" transform="translate(18 15)" d="M0 0h20v30H0z"/></clipPath></defs></svg>