<svg width="43" height="46" fill="none" xmlns="http://www.w3.org/2000/svg"><path d="M2.45 35.3v1.85h3.24v1.3H2.45V41H.83v-7h5.29v1.3H2.45zm7.08 5.78A3.294 3.294 0 018 40.73a2.683 2.683 0 01-1.05-.99 2.714 2.714 0 01-.38-1.43c0-.533.127-1.01.38-1.43.253-.42.603-.747 1.05-.98.453-.24.963-.36 1.53-.36.567 0 1.073.12 1.52.36.447.233.797.56 1.05.98.253.42.38.897.38 1.43 0 .533-.127 1.01-.38 1.43-.253.42-.603.75-1.05.99-.447.233-.953.35-1.52.35zm0-1.28c.4 0 .727-.133.98-.4.26-.273.39-.637.39-1.09 0-.453-.13-.813-.39-1.08-.253-.273-.58-.41-.98-.41s-.73.137-.99.41c-.26.267-.39.627-.39 1.08 0 .453.13.817.39 1.09.26.267.59.4.99.4zm6.553 1.28a3.295 3.295 0 01-1.53-.35 2.684 2.684 0 01-1.05-.99 2.714 2.714 0 01-.38-1.43c0-.533.126-1.01.38-1.43.253-.42.603-.747 1.05-.98a3.22 3.22 0 011.53-.36c.566 0 1.073.12 1.52.36.446.233.796.56 1.05.98.253.42.38.897.38 1.43 0 .533-.127 1.01-.38 1.43-.254.42-.604.75-1.05.99a3.24 3.24 0 01-1.52.35zm0-1.28c.4 0 .726-.133.98-.4.26-.273.39-.637.39-1.09 0-.453-.13-.813-.39-1.08-.254-.273-.58-.41-.98-.41s-.73.137-.99.41c-.26.267-.39.627-.39 1.08 0 .453.13.817.39 1.09.26.267.59.4.99.4zm7.463.94c-.154.113-.344.2-.57.26-.22.053-.454.08-.7.08-.64 0-1.137-.163-1.49-.49-.347-.327-.52-.807-.52-1.44v-2.21h-.83v-1.2h.83v-1.31h1.56v1.31h1.34v1.2h-1.34v2.19c0 .227.056.403.17.53.12.12.286.18.5.18.246 0 .456-.067.63-.2l.42 1.1zm4.055-5.2c.5 0 .954.117 1.36.35.414.227.737.55.97.97.233.413.35.897.35 1.45 0 .553-.116 1.04-.35 1.46a2.513 2.513 0 01-.97.97 2.74 2.74 0 01-1.36.34c-.74 0-1.303-.233-1.69-.7V41h-1.49v-7.42h1.56v2.61c.393-.433.933-.65 1.62-.65zm-.27 4.26c.4 0 .727-.133.98-.4.26-.273.39-.637.39-1.09 0-.453-.13-.813-.39-1.08-.253-.273-.58-.41-.98-.41s-.73.137-.99.41c-.253.267-.38.627-.38 1.08 0 .453.127.817.38 1.09.26.267.59.4.99.4zm6.077-4.26c.833 0 1.473.2 1.92.6.446.393.67.99.67 1.79V41h-1.46v-.67c-.294.5-.84.75-1.64.75-.414 0-.774-.07-1.08-.21-.3-.14-.53-.333-.69-.58a1.51 1.51 0 01-.24-.84c0-.5.186-.893.56-1.18.38-.287.963-.43 1.75-.43h1.24c0-.34-.104-.6-.31-.78-.207-.187-.517-.28-.93-.28-.287 0-.57.047-.85.14a2.17 2.17 0 00-.7.36l-.56-1.09a3.383 3.383 0 011.05-.48 4.79 4.79 0 011.27-.17zm-.12 4.49c.266 0 .503-.06.71-.18.206-.127.353-.31.44-.55v-.55h-1.07c-.64 0-.96.21-.96.63 0 .2.076.36.23.48.16.113.376.17.65.17zm4.122-6.45h1.56V41h-1.56v-7.42zm3.007 0h1.56V41h-1.56v-7.42zM31.79 5.726A15.082 15.082 0 0023.717.464a.44.44 0 10-.217.852c.138.035.276.073.412.112a25.38 25.38 0 01-.093 1.795c-.536.322-2.173 1.264-3.818 1.816-1.643-.552-3.281-1.494-3.818-1.816a25.403 25.403 0 01-.093-1.791 14.198 14.198 0 015.274-.488.439.439 0 10.084-.875 15.038 15.038 0 00-8.37 1.62 15.132 15.132 0 00-5.22 4.504.44.44 0 00.71.517 14.23 14.23 0 012.431-2.587c.492.359.955.72 1.381 1.08-.044.624-.212 2.507-.702 4.17C10.283 10.4 8.571 11.202 8 11.457c-.46-.265-.934-.56-1.415-.88a14.1 14.1 0 01.864-2.055.44.44 0 00-.78-.404A15.043 15.043 0 005 15c0 4.007 1.56 7.773 4.393 10.607A14.902 14.902 0 0020 30c4.007 0 7.773-1.56 10.607-4.393A14.902 14.902 0 0035 15c0-3.401-1.11-6.608-3.21-9.274zm-.69.544a14.036 14.036 0 012.319 4.306c-.482.32-.957.617-1.418.882-.571-.255-2.282-1.055-3.678-2.086-.49-1.662-.658-3.545-.702-4.17.426-.358.889-.72 1.38-1.079.77.638 1.476 1.357 2.1 2.147zm-10.66-.452c2.035-.712 3.945-1.91 4.03-1.963a.44.44 0 00.202-.328c.057-.575.095-1.183.112-1.815a14.19 14.19 0 013.494 1.852c-.497.37-.966.743-1.396 1.114a.44.44 0 00-.153.354c.005.1.12 2.37.711 4.452a40.287 40.287 0 01-3.213 2.358c-.586-.35-2.146-1.24-3.788-1.815v-4.21zm-8.72-2.256a13.92 13.92 0 013.496-1.849 25.4 25.4 0 00.112 1.814.44.44 0 00.203.328c.084.053 1.994 1.25 4.03 1.963v4.21c-1.642.573-3.202 1.463-3.788 1.814a40.302 40.302 0 01-3.213-2.358c.59-2.083.706-4.352.71-4.452a.44.44 0 00-.152-.355c-.431-.37-.9-.744-1.399-1.115zM5.878 15c0-1.213.15-2.396.446-3.54.487.318.968.61 1.434.872a.439.439 0 00.385.022c.091-.039 2.15-.91 3.896-2.16a40.612 40.612 0 003.263 2.391c-.06.708-.19 2.697.001 4.858a37.177 37.177 0 00-3.286 2.746c-1.74-1.242-3.783-2.105-3.874-2.143a.44.44 0 00-.383.02c-.026.015-.559.31-1.343.818A14.182 14.182 0 015.878 15zm9.45 11.87c-.004.027-.06.574-.096 1.43a13.972 13.972 0 01-3.246-1.669c.69-.526 1.112-.893 1.133-.911a.44.44 0 00.15-.352 20 20 0 00-.085-1.033.44.44 0 10-.874.092c.035.33.056.597.068.769a27.75 27.75 0 01-1.128.89c-.43-.34-.843-.707-1.236-1.101a14.07 14.07 0 01-3.32-5.233A28.55 28.55 0 018 18.942c.572.255 2.281 1.055 3.677 2.085.12.408.23.859.326 1.342a.44.44 0 10.862-.172 16.638 16.638 0 00-.312-1.304 36.723 36.723 0 013.235-2.714c.598.357 2.145 1.237 3.773 1.806v4.597c-2.036.712-3.946 1.909-4.03 1.962a.44.44 0 00-.203.325zM20 29.12c-1.338 0-2.647-.185-3.898-.543.021-.639.058-1.136.08-1.402.537-.322 2.173-1.264 3.818-1.816 1.642.552 3.28 1.494 3.817 1.816.023.266.06.763.081 1.402A14.18 14.18 0 0120 29.12zm4.767-.821a24.362 24.362 0 00-.095-1.43.44.44 0 00-.203-.326c-.084-.053-1.994-1.25-4.03-1.962v-4.597c1.628-.57 3.175-1.449 3.773-1.806.538.4 1.923 1.461 3.235 2.714-.597 2.089-.713 4.374-.718 4.474a.44.44 0 00.15.353c.022.018.444.385 1.134.911a13.96 13.96 0 01-3.246 1.669zm5.218-3.315c-.393.394-.806.76-1.236 1.1-.524-.392-.92-.715-1.128-.889.044-.625.212-2.507.702-4.169 1.394-1.029 3.105-1.83 3.677-2.085.246.143.717.424 1.305.81a14.072 14.072 0 01-3.32 5.233zm2.254-6.919a.44.44 0 00-.383-.02c-.09.038-2.133.901-3.874 2.143a37.151 37.151 0 00-3.287-2.746c.037-.414.064-.844.08-1.286a.44.44 0 00-.878-.032 24.6 24.6 0 01-.079 1.265c-.536.322-2.173 1.264-3.818 1.817-1.643-.552-3.281-1.495-3.818-1.817-.19-2.122-.053-4.125 0-4.769.538-.322 2.173-1.263 3.818-1.816 1.642.552 3.28 1.495 3.817 1.817.021.242.053.677.075 1.234a.439.439 0 10.878-.034c-.021-.55-.052-.979-.073-1.236a40.657 40.657 0 003.263-2.391c1.746 1.25 3.805 2.12 3.896 2.159a.439.439 0 00.385-.022c.467-.262.948-.555 1.436-.874a14.2 14.2 0 01.444 3.542 14.18 14.18 0 01-.539 3.884 25.003 25.003 0 00-1.343-.818z" fill="#E5E5E5"/></svg>