<svg width="56" height="56" fill="none" xmlns="http://www.w3.org/2000/svg"><circle cx="28" cy="28" r="22" fill="#C4C4C4" fill-opacity=".4"/><path d="M16 15l1.757 26.256L28.5 45l10.743-3.744L41 15H16z" fill="#FF7816"/><path d="M36.308 22.969H24.024l.298 4.394H36.01l-.713 10.64-6.797 2.41-6.797-2.41-.232-3.55h3.316l.066.967 3.647 1.283 3.647-1.283.299-4.541H21.222l-.763-11.426H36.54l-.232 3.516z" fill="#ECECF1"/><path d="M16.611 2.42A28 28 0 1027.546.005l.07 4.284a23.715 23.715 0 11-9.262 2.047l-1.743-3.914z" fill="#3B5999"/></svg>