<svg width="56" height="56" fill="none" xmlns="http://www.w3.org/2000/svg"><circle cx="28" cy="28" r="22" fill="#C4C4C4" fill-opacity=".4"/><path d="M41 41H16V16h25v25z" fill="#FF5F96"/><path d="M41 41H28.5V16H41v25z" fill="#FF5F96"/><path d="M39.535 39.535h-22.07v-22.07h22.07v22.07z" fill="#7F1D32"/><path d="M39.535 39.535H28.5v-22.07h11.035v22.07z" fill="#7F1D32"/><path d="M24.02 33.188v-8.32h1.618v8.32H24.02zm5.672.117c-1.802 0-2.918-1.503-2.918-3.188 0-1.91 1.287-3.176 2.743-3.176a2.38 2.38 0 012.074 1.184v-3.492h1.57v6.75c0 .164.23.46.363.469v1.335a3.57 3.57 0 01-.668.083c-1.134 0-1.03-1.149-1.03-1.149a2.454 2.454 0 01-2.134 1.184zm.41-1.336c.986 0 1.434-.883 1.489-1.032v-1.464c-.063-.172-.625-1.196-1.582-1.196-1.07 0-1.606 1.061-1.606 1.875 0 .895.659 1.817 1.7 1.817z" fill="#FF5F96"/><path d="M33.161 31.383v-6.75h-1.57v3.492a2.379 2.379 0 00-2.074-1.184c-.355 0-.699.076-1.017.217v2.371c.198-.647.701-1.252 1.509-1.252.957 0 1.52 1.024 1.582 1.196v1.465c-.055.148-.503 1.03-1.488 1.03-.808 0-1.385-.554-1.603-1.22v2.306c.352.16.752.25 1.192.25a2.453 2.453 0 002.133-1.183s-.102 1.148 1.031 1.148c.172 0 .395-.027.669-.082v-1.335c-.133-.008-.364-.305-.364-.47z" fill="#FF5F96"/><path d="M14.855 52.722A28 28 0 1027.714.002l.044 4.284A23.714 23.714 0 1116.866 48.94l-2.011 3.783z" fill="#3B5999"/></svg>