<svg width="56" height="56" fill="none" xmlns="http://www.w3.org/2000/svg"><circle cx="28" cy="28" r="22" fill="#C4C4C4" fill-opacity=".4"/><path d="M41 41H16V16h25v25z" fill="#00C3FF"/><path d="M41 41H28.5V16H41v25z" fill="#00C3FF"/><path d="M39.535 39.535h-22.07v-22.07h22.07v22.07z" fill="#063E8B"/><path d="M39.535 39.535H28.5v-22.07h11.035v22.07z" fill="#063E8B"/><path d="M28.5 37.991a2.183 2.183 0 01-1.554-.644l-7.293-7.293a2.183 2.183 0 01-.644-1.554c0-.587.229-1.139.644-1.554l7.293-7.293a2.183 2.183 0 011.554-.644c.587 0 1.139.229 1.554.644l7.293 7.293c.416.415.644.967.644 1.554a2.18 2.18 0 01-.644 1.554l-7.293 7.293a2.183 2.183 0 01-1.554.644zm0-17.517a.728.728 0 00-.518.214l-7.294 7.294a.728.728 0 00-.214.518c0 .196.076.38.214.518l7.294 7.294a.728.728 0 00.518.214c.196 0 .38-.076.518-.214l7.294-7.294a.728.728 0 00.214-.518.728.728 0 00-.214-.518l-7.294-7.294a.728.728 0 00-.518-.214z" fill="#CCEFFF"/><path d="M37.347 26.946l-7.293-7.293a2.183 2.183 0 00-1.554-.644v1.465c.196 0 .38.076.518.214l7.294 7.294a.728.728 0 01.214.518c0 .196-.076.38-.214.518l-7.294 7.294a.728.728 0 01-.518.214v1.465a2.18 2.18 0 001.554-.644l7.293-7.293a2.18 2.18 0 00.644-1.554 2.18 2.18 0 00-.644-1.554z" fill="#CCEFFF"/><path d="M31.089 31.215c-.945 0-1.617-.43-1.852-.633l.39-.656c.25.177.826.539 1.438.539.397 0 .672-.166.672-.453 0-.352-.58-.466-.898-.555-.266-.073-1.461-.24-1.461-1.14 0-.867.754-1.352 1.61-1.352.897 0 1.377.364 1.6.562l-.421.633c-.208-.156-.672-.453-1.188-.453-.38 0-.624.162-.624.461 0 .373.653.48.804.516.281.073 1.586.272 1.586 1.234 0 1.137-1.146 1.297-1.656 1.297zm-6.313-.078V25.59h2.352c1.076 0 1.766.99 1.766 1.844 0 1.006-.766 1.843-1.727 1.843h-1.313v1.86h-1.078zm1.079-2.805h1.25c.378 0 .695-.353.695-.898 0-.47-.285-.899-.742-.899h-1.203v1.797z" fill="#00C3FF"/><path d="M28.5 26.298v2.306a1.92 1.92 0 00.394-1.17c0-.386-.141-.799-.394-1.136z" fill="#00C3FF"/><path d="M6.24 45.621A28 28 0 1027.31.008l.106 4.284A23.715 23.715 0 119.57 42.924l-3.33 2.697z" fill="#3B5999"/></svg>