<svg width="44" height="45" fill="none" xmlns="http://www.w3.org/2000/svg"><path d="M15.348 0c-3.339 0-5.37 1.953-10.323 1.953C4.46 1.953 4 2.391 4 2.93v20.476c5.757.285 7.79-1.922 11.348-1.922 1.906 0 3.737 1.153 5.127 2.387V2.385C19.02 1.105 17.212 0 15.348 0zm1.025 16.602H8.17c-.566 0-1.025-.438-1.025-.977 0-.54.459-.977 1.025-.977h8.203c.566 0 1.025.438 1.025.977 0 .54-.459.977-1.025.977zm0-3.907H8.17c-.566 0-1.025-.437-1.025-.976 0-.54.459-.977 1.025-.977h8.203c.566 0 1.025.438 1.025.977 0 .539-.459.976-1.025.976zm0-3.906H8.17c-.566 0-1.025-.437-1.025-.976 0-.54.459-.977 1.025-.977h8.203c.566 0 1.025.437 1.025.976 0 .54-.459.977-1.025.977zm-1.025 14.649c-2.963 0-5.36 2.214-11.348 1.932v.997c0 .54.46.977 1.025.977h15.45v-.64c-.942-1.1-3.193-3.267-5.127-3.267zm12.304 0c-1.942 0-4.189 2.165-5.127 3.266v.64h15.45c.566 0 1.025-.438 1.025-.977v-1c-6.007.28-8.383-1.93-11.348-1.93zM37.975 1.953C33.022 1.953 30.992 0 27.652 0c-1.863 0-3.672 1.103-5.127 2.385v21.486c1.39-1.234 3.221-2.387 5.127-2.387 3.567 0 5.63 2.222 11.348 1.929V2.93c0-.54-.46-.977-1.025-.977zM34.83 16.602h-8.203c-.566 0-1.025-.438-1.025-.977 0-.54.459-.977 1.025-.977h8.203c.566 0 1.026.438 1.026.977 0 .54-.46.977-1.026.977zm0-3.907h-8.203c-.566 0-1.025-.437-1.025-.976 0-.54.459-.977 1.025-.977h8.203c.566 0 1.026.438 1.026.977 0 .539-.46.976-1.026.976zm0-3.906h-8.203c-.566 0-1.025-.437-1.025-.976 0-.54.459-.977 1.025-.977h8.203c.566 0 1.026.437 1.026.976 0 .54-.46.977-1.026.977zM5.29 40l-1.35-1.95H2.45V40H.83v-7h3.03c.62 0 1.157.103 1.61.31.46.207.813.5 1.06.88.247.38.37.83.37 1.35 0 .52-.127.97-.38 1.35-.247.373-.6.66-1.06.86L7.03 40H5.29zm-.03-4.46c0-.393-.127-.693-.38-.9-.253-.213-.623-.32-1.11-.32H2.45v2.44h1.32c.487 0 .857-.107 1.11-.32.253-.213.38-.513.38-.9zm8.084 1.79c0 .02-.01.16-.03.42h-4.07c.073.333.246.597.52.79.273.193.613.29 1.02.29.28 0 .526-.04.74-.12.22-.087.423-.22.61-.4l.83.9c-.507.58-1.247.87-2.22.87-.607 0-1.144-.117-1.61-.35a2.636 2.636 0 01-1.08-.99 2.714 2.714 0 01-.38-1.43c0-.527.123-1 .37-1.42a2.625 2.625 0 011.03-.99c.44-.24.93-.36 1.47-.36a3 3 0 011.43.34c.426.227.76.553 1 .98.246.42.37.91.37 1.47zm-2.79-1.61c-.354 0-.65.1-.89.3-.24.2-.387.473-.44.82h2.65a1.27 1.27 0 00-.44-.81 1.302 1.302 0 00-.88-.31zm5.852-1.18c.833 0 1.473.2 1.92.6.446.393.67.99.67 1.79V40h-1.46v-.67c-.294.5-.84.75-1.64.75a2.58 2.58 0 01-1.08-.21c-.3-.14-.53-.333-.69-.58a1.51 1.51 0 01-.24-.84c0-.5.186-.893.56-1.18.38-.287.963-.43 1.75-.43h1.24c0-.34-.104-.6-.31-.78-.207-.187-.517-.28-.93-.28-.287 0-.57.047-.85.14a2.171 2.171 0 00-.7.36l-.56-1.09a3.385 3.385 0 011.05-.48 4.79 4.79 0 011.27-.17zm-.12 4.49c.266 0 .503-.06.71-.18.206-.127.353-.31.44-.55v-.55h-1.07c-.64 0-.96.21-.96.63 0 .2.076.36.23.48.16.113.376.17.65.17zm9.66-6.45V40h-1.49v-.62c-.387.467-.947.7-1.68.7-.507 0-.967-.113-1.38-.34a2.443 2.443 0 01-.96-.97c-.233-.42-.35-.907-.35-1.46 0-.553.117-1.04.35-1.46.233-.42.553-.743.96-.97.413-.227.873-.34 1.38-.34.687 0 1.223.217 1.61.65v-2.61h1.56zm-2.9 6.22c.393 0 .72-.133.98-.4.26-.273.39-.637.39-1.09 0-.453-.13-.813-.39-1.08a1.296 1.296 0 00-.98-.41c-.4 0-.73.137-.99.41-.26.267-.39.627-.39 1.08 0 .453.13.817.39 1.09.26.267.59.4.99.4zm4.344-4.18h1.56V40h-1.56v-5.38zm.78-.75c-.287 0-.52-.083-.7-.25a.81.81 0 01-.27-.62.81.81 0 01.27-.62c.18-.167.413-.25.7-.25s.52.08.7.24c.18.16.27.36.27.6 0 .26-.09.477-.27.65-.18.167-.413.25-.7.25zm5.498.67c.666 0 1.203.2 1.61.6.413.4.62.993.62 1.78V40h-1.56v-2.84c0-.427-.094-.743-.28-.95-.187-.213-.457-.32-.81-.32-.394 0-.707.123-.94.37-.234.24-.35.6-.35 1.08V40h-1.56v-5.38h1.49v.63c.206-.227.463-.4.77-.52a2.62 2.62 0 011.01-.19zm9.252.08v4.48c0 .987-.256 1.72-.77 2.2-.513.48-1.263.72-2.25.72-.52 0-1.013-.063-1.48-.19-.466-.127-.853-.31-1.16-.55l.62-1.12c.227.187.514.333.86.44.347.113.694.17 1.04.17.54 0 .937-.123 1.19-.37.26-.24.39-.607.39-1.1v-.23c-.406.447-.973.67-1.7.67-.493 0-.946-.107-1.36-.32a2.523 2.523 0 01-.97-.92 2.558 2.558 0 01-.36-1.36c0-.513.12-.967.36-1.36a2.45 2.45 0 01.97-.91c.414-.22.867-.33 1.36-.33.78 0 1.374.257 1.78.77v-.69h1.48zm-2.95 3.84c.414 0 .75-.12 1.01-.36.267-.247.4-.567.4-.96s-.133-.71-.4-.95c-.26-.247-.596-.37-1.01-.37-.413 0-.753.123-1.02.37-.266.24-.4.557-.4.95 0 .393.134.713.4.96.267.24.607.36 1.02.36z" fill="#E5E5E5"/></svg>