<svg width="41" height="46" fill="none" xmlns="http://www.w3.org/2000/svg"><path d="M3.13 41.12c-.553 0-1.09-.073-1.61-.22-.513-.153-.927-.35-1.24-.59l.55-1.22c.3.22.657.397 1.07.53.413.133.827.2 1.24.2.46 0 .8-.067 1.02-.2.22-.14.33-.323.33-.55a.502.502 0 00-.2-.41 1.372 1.372 0 00-.5-.27c-.2-.067-.473-.14-.82-.22-.533-.127-.97-.253-1.31-.38a2.167 2.167 0 01-.88-.61c-.24-.28-.36-.653-.36-1.12 0-.407.11-.773.33-1.1.22-.333.55-.597.99-.79.447-.193.99-.29 1.63-.29.447 0 .883.053 1.31.16.427.107.8.26 1.12.46l-.5 1.23c-.647-.367-1.293-.55-1.94-.55-.453 0-.79.073-1.01.22-.213.147-.32.34-.32.58 0 .24.123.42.37.54.253.113.637.227 1.15.34.533.127.97.253 1.31.38.34.127.63.327.87.6.247.273.37.643.37 1.11 0 .4-.113.767-.34 1.1-.22.327-.553.587-1 .78-.447.193-.99.29-1.63.29zm3.967-5.5h1.56V41h-1.56v-5.38zm.78-.75c-.287 0-.52-.083-.7-.25a.81.81 0 01-.27-.62.81.81 0 01.27-.62c.18-.167.413-.25.7-.25s.52.08.7.24c.18.16.27.36.27.6 0 .26-.09.477-.27.65-.18.167-.413.25-.7.25zm5.498.67c.666 0 1.203.2 1.61.6.413.4.62.993.62 1.78V41h-1.56v-2.84c0-.427-.094-.743-.28-.95-.187-.213-.457-.32-.81-.32-.394 0-.707.123-.94.37-.234.24-.35.6-.35 1.08V41h-1.56v-5.38h1.49v.63c.206-.227.463-.4.77-.52a2.62 2.62 0 011.01-.19zm9.252.08v4.48c0 .987-.256 1.72-.77 2.2-.513.48-1.263.72-2.25.72-.52 0-1.013-.063-1.48-.19-.466-.127-.853-.31-1.16-.55l.62-1.12c.227.187.514.333.86.44.347.113.694.17 1.04.17.54 0 .937-.123 1.19-.37.26-.24.39-.607.39-1.1v-.23c-.406.447-.973.67-1.7.67-.493 0-.946-.107-1.36-.32a2.523 2.523 0 01-.97-.92 2.558 2.558 0 01-.36-1.36c0-.513.12-.967.36-1.36a2.45 2.45 0 01.97-.91 2.85 2.85 0 011.36-.33c.78 0 1.374.257 1.78.77v-.69h1.48zm-2.95 3.84c.414 0 .75-.12 1.01-.36.267-.247.4-.567.4-.96s-.133-.71-.4-.95c-.26-.247-.596-.37-1.01-.37-.413 0-.753.123-1.02.37-.266.24-.4.557-.4.95 0 .393.134.713.4.96.267.24.607.36 1.02.36zm4.402-3.84h1.56V41h-1.56v-5.38zm.78-.75c-.286 0-.52-.083-.7-.25a.81.81 0 01-.27-.62.81.81 0 01.27-.62c.18-.167.414-.25.7-.25.287 0 .52.08.7.24.18.16.27.36.27.6 0 .26-.09.477-.27.65-.18.167-.413.25-.7.25zm5.498.67c.667 0 1.204.2 1.61.6.413.4.62.993.62 1.78V41h-1.56v-2.84c0-.427-.093-.743-.28-.95-.186-.213-.456-.32-.81-.32-.393 0-.707.123-.94.37-.233.24-.35.6-.35 1.08V41h-1.56v-5.38h1.49v.63c.207-.227.463-.4.77-.52a2.62 2.62 0 011.01-.19zm9.253.08v4.48c0 .987-.257 1.72-.77 2.2-.514.48-1.264.72-2.25.72a5.61 5.61 0 01-1.48-.19c-.467-.127-.853-.31-1.16-.55l.62-1.12c.227.187.513.333.86.44.346.113.693.17 1.04.17.54 0 .937-.123 1.19-.37.26-.24.39-.607.39-1.1v-.23c-.407.447-.973.67-1.7.67-.494 0-.947-.107-1.36-.32a2.523 2.523 0 01-.97-.92 2.558 2.558 0 01-.36-1.36c0-.513.12-.967.36-1.36a2.45 2.45 0 01.97-.91 2.85 2.85 0 011.36-.33c.78 0 1.373.257 1.78.77v-.69h1.48zm-2.95 3.84c.413 0 .75-.12 1.01-.36.267-.247.4-.567.4-.96s-.133-.71-.4-.95c-.26-.247-.597-.37-1.01-.37-.413 0-.753.123-1.02.37-.267.24-.4.557-.4.95 0 .393.133.713.4.96.267.24.606.36 1.02.36zM4.75 29.145l2.273-1.909 1.45 1.218c.387.325 1.009.337 1.413.03L24.39 17.462l.76.639c.4.336 1.05.336 1.45 0l2.9-2.436a.887.887 0 00.182-.207c1.772-.147 3.459-.72 4.852-1.655l.766.644c.4.336 1.05.336 1.45 0 .4-.337.4-.882 0-1.218l-.765-.643c2.89-3.03 2.682-7.492-.685-10.32C31.946-.55 26.634-.74 23.014 1.691l-.765-.643a1.168 1.168 0 00-1.45 0c-.4.337-.4.882 0 1.218l.766.644c-1.112 1.17-1.796 2.588-1.97 4.076-.09.04-.173.091-.246.153l-2.9 2.436c-.4.336-.4.881 0 1.218l.76.638L4.088 23.613c-.366.34-.351.863.035 1.187l1.45 1.218-2.273 1.91c-.4.336-.4.881 0 1.217.4.337 1.05.337 1.45 0zm29.1-25.66c2.571 2.16 2.764 5.533.674 7.873l-10.048-8.44c2.784-1.753 6.801-1.595 9.374.567zm-.778 9.09c-1.255.787-2.792 1.212-4.374 1.198L21.6 7.813c-.017-1.33.489-2.621 1.426-3.675l10.044 8.437zm-12.997-3.61l7.25 6.09-1.45 1.219-7.25-6.09 1.45-1.218zM12.28 24.343l-3.261-2.74 9.643-8.952 4.276 3.591-10.658 8.1zm-4.639-1.46l3.116 2.617-1.522 1.157-2.97-2.496 1.376-1.279z" fill="#E5E5E5"/></svg>