<svg width="56" height="56" fill="none" xmlns="http://www.w3.org/2000/svg"><circle cx="28" cy="28" r="22" fill="#C4C4C4" fill-opacity=".4"/><path d="M41 41H16V16h25v25z" fill="#FF80E4"/><path d="M41 41H28.5V16H41v25z" fill="#FF80E4"/><path d="M39.535 39.535h-22.07v-22.07h22.07v22.07z" fill="#7F1363"/><path d="M39.535 39.535H28.5v-22.07h11.035v22.07z" fill="#7F1363"/><path d="M23.151 24.867l2.075 3.094 2.062-3.094h1.746l-2.965 4.219 2.871 4.102h-1.746l-1.968-2.977-1.98 2.977h-1.759l2.871-4.102-2.964-4.219h1.757zm8.754 8.438c-1.803 0-2.918-1.503-2.918-3.188 0-1.91 1.286-3.176 2.743-3.176a2.38 2.38 0 012.074 1.184v-3.492h1.57v6.75c0 .164.23.46.363.469v1.335a3.57 3.57 0 01-.668.083c-1.134 0-1.031-1.149-1.031-1.149a2.454 2.454 0 01-2.133 1.184zm.41-1.336c.986 0 1.434-.883 1.489-1.032v-1.464c-.063-.172-.625-1.196-1.582-1.196-1.07 0-1.606 1.061-1.606 1.875 0 .895.658 1.817 1.7 1.817z" fill="#FF80E4"/><path d="M28.5 24.867v.76l.534-.76H28.5zm0 8.32h.44l-.44-.629v.63z" fill="#FF80E4"/><path d="M2.623 16.167A28 28 0 1026.66.032l.205 4.28A23.715 23.715 0 116.507 17.978l-3.884-1.811z" fill="#3B5999"/></svg>